HIERARCHY
ROOT root
{
	OFFSET	0	13.1	24.9
	CHANNELS 6  Xposition Yposition Zposition Xrotation Yrotation Zrotation
	JOINT spine_1
	{
		OFFSET	0	9.99999	0
		CHANNELS 3  Xrotation Yrotation Zrotation
		JOINT spine_2
		{
			OFFSET	0	112	-10
			CHANNELS 3  Xrotation Yrotation Zrotation
			JOINT spine_3
			{
				OFFSET	0	206.5	19.3
				CHANNELS 3  Xrotation Yrotation Zrotation
				JOINT spine_4
				{
					OFFSET	0	110.4	14.6
					CHANNELS 3  Xrotation Yrotation Zrotation
					JOINT neck_1
					{
						OFFSET	0	71.8	-50.3
						CHANNELS 3  Xrotation Yrotation Zrotation
						JOINT neck_2
						{
							OFFSET	0	86.2	-25.8
							CHANNELS 3  Xrotation Yrotation Zrotation
							JOINT head_ee
							{
								OFFSET	0	179.8	-8.7
								CHANNELS 3  Xrotation Yrotation Zrotation
								End Site
								{
									OFFSET	1	0	0
								}
							}
						}
					}
					JOINT left_clavicle
					{
						OFFSET	-43.2	22.4	-70.8
						CHANNELS 3  Xrotation Yrotation Zrotation
						JOINT left_shoulder
						{
							OFFSET	-93.9	-5.79999	48.7
							CHANNELS 3  Xrotation Yrotation Zrotation
							JOINT left_elbow
							{
								OFFSET	-291.4	-30.8	15.2
								CHANNELS 3  Xrotation Yrotation Zrotation
								JOINT left_lowarm_twist
								{
									OFFSET	-110.7	-3.89999	13.6
									CHANNELS 3  Xrotation Yrotation Zrotation
									JOINT left_hand
									{
										OFFSET	-110.7	-3.89999	13.6
										CHANNELS 3  Xrotation Yrotation Zrotation
										JOINT left_ee
										{
											OFFSET	-80.8	-5.10001	12.1
											CHANNELS 3  Xrotation Yrotation Zrotation
											End Site
											{
												OFFSET	1	0	0
											}
										}
									}
								}
							}
						}
					}
					JOINT right_clavicle
					{
						OFFSET	43.2	22.4	-70.8
						CHANNELS 3  Xrotation Yrotation Zrotation
						JOINT right_shoulder
						{
							OFFSET	93.9	-5.79999	48.7
							CHANNELS 3  Xrotation Yrotation Zrotation
							JOINT right_elbow
							{
								OFFSET	291.4	-30.8	15.2
								CHANNELS 3  Xrotation Yrotation Zrotation
								JOINT right_lowarm_twist
								{
									OFFSET	110.7	-3.89999	13.6
									CHANNELS 3  Xrotation Yrotation Zrotation
									JOINT right_hand
									{
										OFFSET	110.7	-3.89999	13.6
										CHANNELS 3  Xrotation Yrotation Zrotation
										JOINT right_ee
										{
											OFFSET	80.8	-5.10001	12.1
											CHANNELS 3  Xrotation Yrotation Zrotation
											End Site
											{
												OFFSET	1	0	0
											}
										}
									}
								}
							}
						}
					}
				}
			}
		}
	}
	JOINT left_hip
	{
		OFFSET	-82.8	-127.5	0.300001
		CHANNELS 3  Xrotation Yrotation Zrotation
		JOINT left_knee
		{
			OFFSET	-28.2	-396.7	2.2
			CHANNELS 3  Xrotation Yrotation Zrotation
			JOINT left_ankle
			{
				OFFSET	-11.7	-411.3	35.4
				CHANNELS 3  Xrotation Yrotation Zrotation
				JOINT left_toes
				{
					OFFSET	0	-60	-88.6
					CHANNELS 3  Xrotation Yrotation Zrotation
					JOINT left_foot_ee
					{
						OFFSET	-22.5	-16.5	-42.2
						CHANNELS 3  Xrotation Yrotation Zrotation
						End Site
						{
							OFFSET	1	0	0
						}
					}
				}
			}
		}
	}
	JOINT right_hip
	{
		OFFSET	82.8	-127.5	0.300001
		CHANNELS 3  Xrotation Yrotation Zrotation
		JOINT right_knee
		{
			OFFSET	28.2	-396.7	2.2
			CHANNELS 3  Xrotation Yrotation Zrotation
			JOINT right_ankle
			{
				OFFSET	11.7	-411.3	35.4
				CHANNELS 3  Xrotation Yrotation Zrotation
				JOINT right_toes
				{
					OFFSET	0	-60	-88.6
					CHANNELS 3  Xrotation Yrotation Zrotation
					JOINT right_foot_ee
					{
						OFFSET	22.5	-16.5	-42.2
						CHANNELS 3  Xrotation Yrotation Zrotation
						End Site
						{
							OFFSET	1	0	0
						}
					}
				}
			}
		}
	}
}
MOTION
Frames: 10
Frame Time: 0.02
2809.50151611 689.102 -1657.82155187 10.8865018076 54.985327416 -9.38547810206 -2.73473 0.233949 2.44969 -2.7314 0.0776431 2.45961 -2.72417 -0.555909 2.39726 -2.73215 -0.17045 2.45493 -0.963409 15.6559 -2.95845 -0.241045 30.4977 -1.46205 -0.0 0.0 -0.0 -1.20421 13.7093 -0.352798 5.23851 -9.36776 58.0606 1.79266 -41.6022 0.681056 -12.8546 -0.625941 1.51628 1.70201 -12.2377 6.27763 -0.0 0.0 -0.0 10.7535 18.9896 -21.1663 -22.686 31.0931 -56.9979 1.02714 26.9671 -0.24629 -53.7268 4.51451 -4.86348 0.351933 1.43489 -1.75265 0.0 0.0 0.0 -5.83092 -0.0389996 1.89495 -9.59388 0.27456 1.44504 21.9051 2.5416 -2.97282 -12.5929 0.0 0.0 -0.0 0.0 -0.0 15.1447 25.5843 -9.02696 -56.6609 1.85041 -8.1474 -2.57701 -12.8801 -0.380415 -30.3963 0.0 0.0 0.0 0.0 0.0 
2798.78894847 697.831 -1634.71722377 13.2028271941 60.0086004303 -11.4969443746 -2.80081 0.109518 2.26377 -2.79796 -0.0347158 2.26615 -2.79618 -0.617656 2.18067 -2.80272 -0.2656 2.25081 -1.89136 15.4647 -2.64493 -1.30062 30.0405 -0.892891 -0.0 0.0 -0.0 -1.17438 13.3237 -0.359907 7.02268 -9.96939 57.4221 2.03598 -45.2391 0.848387 -12.6977 -0.616272 1.49868 1.54118 -12.3725 5.12996 -0.0 0.0 -0.0 10.7883 18.5119 -21.2752 -23.8645 29.9482 -57.8557 0.86229 23.1297 -0.176454 -53.6595 4.50642 -4.86048 0.477883 1.52698 -2.5589 0.0 0.0 0.0 -6.65 -0.0660215 2.34407 -7.83889 0.242496 1.17766 22.3132 2.06416 -3.02407 -12.3362 0.0 0.0 -0.0 0.0 -0.0 18.0992 24.234 -9.15405 -56.7043 1.85482 -8.15244 -3.04009 -14.3579 -0.450233 -30.8539 0.0 0.0 0.0 0.0 0.0 
2789.31399025 690.835 -1610.07313244 11.6623031642 65.7804636561 -11.1087882104 -2.19224 -0.0168 2.14842 -2.18968 -0.153443 2.143 -2.19319 -0.679248 2.03833 -2.19882 -0.348884 2.11998 -2.24458 15.7932 -1.61253 -1.72772 29.8868 0.340464 -0.0 0.0 -0.0 -0.994868 12.1765 -0.225654 8.79587 -11.324 57.1796 2.21665 -47.6697 0.979366 -12.7228 -0.617818 1.5015 1.40072 -11.5861 4.52432 -0.0 0.0 -0.0 10.843 18.1893 -21.4184 -24.9647 29.1679 -58.7183 0.648138 17.8003 -0.101499 -53.9248 4.53835 -4.87226 0.956823 1.60503 -5.74606 0.0 0.0 0.0 -7.57406 0.00476918 2.98415 -2.79535 0.104959 0.416113 22.5258 5.19614 -3.04017 -12.6892 0.0 0.0 -0.0 0.0 -0.0 19.186 22.418 -9.32865 -46.8278 0.957253 -6.92629 -5.48043 -18.0415 -0.822407 -34.1165 0.0 0.0 0.0 0.0 0.0 
2771.75984243 691.001 -1590.48891382 11.7140038833 70.5537172291 -11.7420349238 -1.80131 -0.172581 2.00623 -1.79912 -0.299867 1.99119 -1.80807 -0.771073 1.86021 -1.81259 -0.467672 1.95859 -3.22758 15.4923 -1.40689 -2.83309 29.3288 0.77479 -0.0 0.0 -0.0 -0.87565 11.2507 -0.153497 10.0514 -12.3936 57.0373 2.35447 -49.3835 1.08264 -12.774 -0.620966 1.50724 1.35434 -11.0272 4.45377 -0.0 0.0 -0.0 10.8296 17.9646 -21.4014 -26.0984 28.4726 -59.0604 0.504044 14.0197 -0.061977 -54.1109 4.56078 -4.88045 1.43879 1.60697 -9.00463 0.0 0.0 0.0 -8.44667 0.0620218 3.20985 -0.780749 0.03136 0.11571 22.7216 8.24043 -3.06318 -12.6671 0.0 0.0 -0.0 0.0 -0.0 19.8512 21.1 -8.4649 -39.9939 0.46638 -5.99744 -7.22746 -22.0242 -1.10305 -36.4012 0.0 0.0 0.0 0.0 0.0 
2731.78698511 696.172 -1558.72350889 18.6709136438 76.7479435409 -19.1157653451 -1.65445 -0.29106 1.73633 -1.65286 -0.400941 1.7143 -1.66404 -0.798447 1.56913 -1.66706 -0.540649 1.6755 -4.64488 13.0371 -3.49624 -4.38443 26.5661 -1.4146 -0.0 0.0 -0.0 -0.644333 7.0535 -0.315877 12.5917 -14.2595 56.3456 2.58793 -52.0356 1.26338 -12.6525 -0.613497 1.49361 1.16713 -7.60839 4.65528 -0.0 0.0 -0.0 10.5796 16.4762 -20.9192 -30.9071 26.8727 -60.6463 0.347974 9.78051 -0.0297723 -56.0697 4.7984 -4.96211 2.88655 4.05722 -18.0134 0.0 0.0 0.0 -11.9528 1.22336 4.5248 -0.473461 0.0192059 0.0701193 18.3631 15.0825 -2.54941 -13.248 0.0 0.0 -0.0 0.0 -0.0 22.6172 17.5467 -7.01381 -27.3255 -0.137179 -4.15158 -10.1886 -25.0054 -1.58311 -40.2511 0.0 0.0 0.0 0.0 0.0 
2713.92219006 690.598 -1548.02640848 20.4275758739 77.8267025332 -21.0724438386 -1.68613 -0.13319 1.70203 -1.68455 -0.241209 1.69011 -1.69062 -0.638234 1.58348 -1.69392 -0.38018 1.66438 -3.84759 11.7604 -3.86928 -3.55224 24.4446 -2.18895 -0.0 0.0 -0.0 -0.483755 4.89723 -0.305523 13.6387 -14.4418 56.0158 2.62959 -52.4782 1.29632 -12.5196 -0.60536 1.47868 0.908127 -6.00871 3.58045 -0.0 0.0 -0.0 10.3481 16.4599 -20.4012 -31.708 26.6721 -61.366 0.327128 9.20494 -0.0263344 -56.007 4.79076 -4.95962 3.78249 8.7806 -22.3548 0.0 0.0 0.0 -11.6422 0.235336 5.59052 -0.873277 0.0349719 0.129451 12.9888 14.7868 -1.84044 -12.678 0.0 0.0 -0.0 0.0 -0.0 22.8509 16.689 -8.19208 -24.1874 -0.222479 -3.6776 -5.3835 -21.0186 -0.815881 -40.2662 0.0 0.0 0.0 0.0 0.0 
2713.88197723 690.598 -1548.18008272 20.3968604886 77.8088841645 -21.0410208544 -1.68613 -0.13319 1.70203 -1.68455 -0.241209 1.69011 -1.69062 -0.638234 1.58348 -1.69392 -0.38018 1.66438 -3.84759 11.7604 -3.86928 -3.55224 24.4446 -2.18895 -0.0 0.0 -0.0 -0.483755 4.89723 -0.305523 13.6387 -14.4418 56.0158 2.62959 -52.4782 1.29632 -12.5196 -0.60536 1.47868 0.908127 -6.00871 3.58045 -0.0 0.0 -0.0 10.3481 16.4599 -20.4012 -31.708 26.6721 -61.366 0.327128 9.20494 -0.0263344 -56.007 4.79076 -4.95962 3.78249 8.7806 -22.3548 0.0 0.0 0.0 -11.6422 0.235336 5.59052 -0.873277 0.0349719 0.129451 12.9888 14.7868 -1.84044 -12.678 0.0 0.0 -0.0 0.0 -0.0 22.8509 16.689 -8.19208 -24.1874 -0.222479 -3.6776 -5.3835 -21.0186 -0.815881 -40.2662 0.0 0.0 0.0 0.0 0.0 
2702.30648417 687.391 -1545.43665613 19.6757622488 77.444274582 -20.4923489141 -1.71923 0.025609 1.68415 -1.71765 -0.0815942 1.68237 -1.71879 -0.482129 1.61389 -1.72235 -0.221232 1.66976 -3.61048 9.94188 -2.50868 -3.42111 20.0684 -1.08827 -0.0 0.0 -0.0 -0.25406 3.32987 -0.0779105 14.8272 -14.7052 55.8098 2.83381 -54.5252 1.46051 -13.2129 -0.648194 1.55637 0.429145 -1.59978 2.20157 -0.0 0.0 -0.0 9.82483 13.5708 -19.3612 -33.8708 29.2406 -60.0332 0.441885 12.3473 -0.0477986 -55.8888 4.77635 -4.95491 5.12344 12.5308 -30.5094 0.0 0.0 0.0 -11.7683 -1.92311 6.19106 -4.8831 0.170027 0.729897 12.3731 13.6086 -1.75302 -11.3008 0.0 0.0 -0.0 0.0 -0.0 24.6572 17.704 -9.68475 -20.9684 -0.282871 -3.1874 -0.220339 -20.7104 -0.033018 -40.1977 0.0 0.0 0.0 0.0 0.0 
2702.14292872 687.391 -1546.06524569 19.5617404916 77.3728232551 -20.3755172987 -1.71923 0.025609 1.68415 -1.71765 -0.0815942 1.68237 -1.71879 -0.482129 1.61389 -1.72235 -0.221232 1.66976 -3.61048 9.94188 -2.50868 -3.42111 20.0684 -1.08827 -0.0 0.0 -0.0 -0.25406 3.32987 -0.0779105 14.8272 -14.7052 55.8098 2.83381 -54.5252 1.46051 -13.2129 -0.648194 1.55637 0.429145 -1.59978 2.20157 -0.0 0.0 -0.0 9.82483 13.5708 -19.3612 -33.8708 29.2406 -60.0332 0.441885 12.3473 -0.0477986 -55.8888 4.77635 -4.95491 5.12344 12.5308 -30.5094 0.0 0.0 0.0 -11.7683 -1.92311 6.19106 -4.8831 0.170027 0.729897 12.3731 13.6086 -1.75302 -11.3008 0.0 0.0 -0.0 0.0 -0.0 24.6572 17.704 -9.68475 -20.9684 -0.282871 -3.1874 -0.220339 -20.7104 -0.033018 -40.1977 0.0 0.0 0.0 0.0 0.0 
2686.96641394 685.468 -1549.82018756 19.8633476513 76.4060582929 -20.4815487758 -1.814 0.136567 1.64876 -1.81249 0.0313898 1.6541 -1.81019 -0.368191 1.61292 -1.81381 -0.108876 1.65081 -3.58503 8.63673 -1.53781 -3.46116 16.9396 -0.278019 -0.0 0.0 -0.0 -0.226639 2.39808 -0.141607 15.3826 -14.8261 55.2204 2.96201 -55.7134 1.56569 -13.7218 -0.680234 1.61307 0.0963079 1.4846 1.26495 -0.0 0.0 -0.0 9.4851 11.6004 -18.6757 -35.519 30.8865 -58.6153 0.523887 14.5485 -0.0668729 -55.8561 4.77236 -4.9536 6.04335 15.0686 -36.3084 0.0 0.0 0.0 -12.079 -3.79135 5.9189 -7.6839 0.239271 1.15409 11.9443 12.7448 -1.69244 -10.3614 0.0 0.0 -0.0 0.0 -0.0 26.3778 18.6366 -9.84567 -16.2146 -0.321505 -2.45923 3.8966 -20.4059 0.57749 -40.0621 0.0 0.0 0.0 0.0 0.0 
